<mxfile modified="2023-09-17T13:10:03.621Z" host="app.diagrams.net" agent="Mozilla/5.0 (Macintosh; Intel Mac OS X 10_15_7) AppleWebKit/537.36 (KHTML, like Gecko) Chrome/116.0.0.0 Safari/537.36" etag="Z3Tl7xO9G0_IGqSKhG83" version="21.7.5" type="device">
  <diagram id="Ht1M8jgEwFfnCIfOTk4-" name="Page-1">
    <mxGraphModel dx="714" dy="1531" grid="1" gridSize="10" guides="1" tooltips="1" connect="1" arrows="1" fold="1" page="1" pageScale="1" pageWidth="1169" pageHeight="827" math="0" shadow="0">
      <root>
        <mxCell id="0" />
        <mxCell id="1" parent="0" />
        <mxCell id="UEzPUAAOIrF-is8g5C7q-175" value="AWS Cloud" style="points=[[0,0],[0.25,0],[0.5,0],[0.75,0],[1,0],[1,0.25],[1,0.5],[1,0.75],[1,1],[0.75,1],[0.5,1],[0.25,1],[0,1],[0,0.75],[0,0.5],[0,0.25]];outlineConnect=0;gradientColor=none;html=1;whiteSpace=wrap;fontSize=12;fontStyle=0;shape=mxgraph.aws4.group;grIcon=mxgraph.aws4.group_aws_cloud_alt;strokeColor=#232F3E;fillColor=none;verticalAlign=top;align=left;spacingLeft=30;fontColor=#232F3E;dashed=0;labelBackgroundColor=#ffffff;container=1;pointerEvents=0;collapsible=0;recursiveResize=0;" parent="1" vertex="1">
          <mxGeometry x="290" y="-690" width="840" height="450" as="geometry" />
        </mxCell>
        <mxCell id="nvhU3l79kNzZTu7GIlZF-34" style="edgeStyle=orthogonalEdgeStyle;rounded=0;orthogonalLoop=1;jettySize=auto;html=1;" edge="1" parent="UEzPUAAOIrF-is8g5C7q-175" source="UEzPUAAOIrF-is8g5C7q-177" target="nvhU3l79kNzZTu7GIlZF-28">
          <mxGeometry relative="1" as="geometry">
            <Array as="points">
              <mxPoint x="620" y="205" />
              <mxPoint x="620" y="205" />
            </Array>
          </mxGeometry>
        </mxCell>
        <mxCell id="UEzPUAAOIrF-is8g5C7q-177" value="Amazon S3&lt;br&gt;Bucket&lt;br&gt;" style="outlineConnect=0;fontColor=#232F3E;gradientColor=none;fillColor=#277116;strokeColor=none;dashed=0;verticalLabelPosition=bottom;verticalAlign=top;align=center;html=1;fontSize=12;fontStyle=0;aspect=fixed;pointerEvents=1;shape=mxgraph.aws4.bucket;labelBackgroundColor=#ffffff;" parent="UEzPUAAOIrF-is8g5C7q-175" vertex="1">
          <mxGeometry x="740" y="170" width="75" height="78" as="geometry" />
        </mxCell>
        <mxCell id="nvhU3l79kNzZTu7GIlZF-24" style="edgeStyle=orthogonalEdgeStyle;rounded=0;orthogonalLoop=1;jettySize=auto;html=1;" edge="1" parent="UEzPUAAOIrF-is8g5C7q-175" source="nvhU3l79kNzZTu7GIlZF-2" target="nvhU3l79kNzZTu7GIlZF-11">
          <mxGeometry relative="1" as="geometry" />
        </mxCell>
        <mxCell id="nvhU3l79kNzZTu7GIlZF-2" value="Amazon Cloudfront" style="sketch=0;outlineConnect=0;fontColor=#232F3E;gradientColor=none;strokeColor=#ffffff;fillColor=#232F3E;dashed=0;verticalLabelPosition=middle;verticalAlign=bottom;align=center;html=1;whiteSpace=wrap;fontSize=10;fontStyle=1;spacing=3;shape=mxgraph.aws4.productIcon;prIcon=mxgraph.aws4.cloudfront;" vertex="1" parent="UEzPUAAOIrF-is8g5C7q-175">
          <mxGeometry x="120" y="170" width="80" height="110" as="geometry" />
        </mxCell>
        <mxCell id="nvhU3l79kNzZTu7GIlZF-25" style="edgeStyle=orthogonalEdgeStyle;rounded=0;orthogonalLoop=1;jettySize=auto;html=1;" edge="1" parent="UEzPUAAOIrF-is8g5C7q-175" source="nvhU3l79kNzZTu7GIlZF-11" target="nvhU3l79kNzZTu7GIlZF-2">
          <mxGeometry relative="1" as="geometry">
            <Array as="points">
              <mxPoint x="220" y="205" />
              <mxPoint x="220" y="205" />
            </Array>
          </mxGeometry>
        </mxCell>
        <mxCell id="nvhU3l79kNzZTu7GIlZF-46" style="edgeStyle=orthogonalEdgeStyle;rounded=0;orthogonalLoop=1;jettySize=auto;html=1;" edge="1" parent="UEzPUAAOIrF-is8g5C7q-175" source="nvhU3l79kNzZTu7GIlZF-11" target="nvhU3l79kNzZTu7GIlZF-28">
          <mxGeometry relative="1" as="geometry">
            <Array as="points">
              <mxPoint x="500" y="225" />
              <mxPoint x="500" y="225" />
            </Array>
          </mxGeometry>
        </mxCell>
        <mxCell id="nvhU3l79kNzZTu7GIlZF-11" value="Amazon API Gateway" style="sketch=0;outlineConnect=0;fontColor=#232F3E;gradientColor=none;strokeColor=#ffffff;fillColor=#232F3E;dashed=0;verticalLabelPosition=middle;verticalAlign=bottom;align=center;html=1;whiteSpace=wrap;fontSize=10;fontStyle=1;spacing=3;shape=mxgraph.aws4.productIcon;prIcon=mxgraph.aws4.api_gateway;" vertex="1" parent="UEzPUAAOIrF-is8g5C7q-175">
          <mxGeometry x="330" y="170" width="80" height="110" as="geometry" />
        </mxCell>
        <mxCell id="nvhU3l79kNzZTu7GIlZF-30" style="edgeStyle=orthogonalEdgeStyle;rounded=0;orthogonalLoop=1;jettySize=auto;html=1;" edge="1" parent="UEzPUAAOIrF-is8g5C7q-175" source="nvhU3l79kNzZTu7GIlZF-28" target="nvhU3l79kNzZTu7GIlZF-11">
          <mxGeometry relative="1" as="geometry">
            <Array as="points">
              <mxPoint x="490" y="195" />
              <mxPoint x="490" y="195" />
            </Array>
          </mxGeometry>
        </mxCell>
        <mxCell id="nvhU3l79kNzZTu7GIlZF-33" style="edgeStyle=orthogonalEdgeStyle;rounded=0;orthogonalLoop=1;jettySize=auto;html=1;" edge="1" parent="UEzPUAAOIrF-is8g5C7q-175" source="nvhU3l79kNzZTu7GIlZF-28" target="UEzPUAAOIrF-is8g5C7q-177">
          <mxGeometry relative="1" as="geometry">
            <Array as="points">
              <mxPoint x="640" y="225" />
              <mxPoint x="640" y="225" />
            </Array>
          </mxGeometry>
        </mxCell>
        <mxCell id="nvhU3l79kNzZTu7GIlZF-47" style="edgeStyle=orthogonalEdgeStyle;rounded=0;orthogonalLoop=1;jettySize=auto;html=1;" edge="1" parent="UEzPUAAOIrF-is8g5C7q-175" source="nvhU3l79kNzZTu7GIlZF-28" target="nvhU3l79kNzZTu7GIlZF-37">
          <mxGeometry relative="1" as="geometry" />
        </mxCell>
        <mxCell id="nvhU3l79kNzZTu7GIlZF-28" value="AWS Lambda" style="sketch=0;outlineConnect=0;fontColor=#232F3E;gradientColor=none;strokeColor=#ffffff;fillColor=#232F3E;dashed=0;verticalLabelPosition=middle;verticalAlign=bottom;align=center;html=1;whiteSpace=wrap;fontSize=10;fontStyle=1;spacing=3;shape=mxgraph.aws4.productIcon;prIcon=mxgraph.aws4.lambda;" vertex="1" parent="UEzPUAAOIrF-is8g5C7q-175">
          <mxGeometry x="530" y="170" width="80" height="100" as="geometry" />
        </mxCell>
        <mxCell id="nvhU3l79kNzZTu7GIlZF-37" value="" style="shape=image;imageAspect=0;aspect=fixed;verticalLabelPosition=bottom;verticalAlign=top;image=data:image/jpeg,/9j/4AAQSkZJRgABAQAAAQABAAD/2wCEAAYGBgYGBgYHBwYJCgkKCQ0MCwsMDRQODw4PDhQfExYTExYTHxshGxkbIRsxJiIiJjE4Ly0vOEQ9PURWUVZwcJYBBgYGBgYGBgcHBgkKCQoJDQwLCwwNFA4PDg8OFB8TFhMTFhMfGyEbGRshGzEmIiImMTgvLS84RD09RFZRVnBwlv/CABEIAb4EeAMBIgACEQEDEQH/xAAcAAEAAwADAQEAAAAAAAAAAAAABgcIAwQFAQL/2gAIAQEAAAAAtUAAAAAAAAAAAAAAAAAAAAAAAAAAAAAAAAAAAAAAAAAAAAAAAAAAAAAAAAAAAAAAAAAAAAAAAAAAAAAAAAAAAAAAAAAAAAAAAAAAAAAAAAAAAAAAAAAAAAAAAAAAAAAAAAAAAAAAAAAAAAAAAAAAAAAAAAAAAAAAAAAAAAAAAAAAAAAAAAAAAAAAAAAAAAAAAAAAAAAAAAAAAAAAAAAAAAAAAAAAAAAAAAAAAAAAAAAAAAAAAAAAAAAAAAAAAAAAAAAAAAAAAAAAAAAAAAAAAAAAAAAAAAAAAAAAAAAAAAAAAAAAAAAAAAAAAAAAAAAAAAAAAAAAAAAAAAAAADgp6Ie9YE15AAAAAAAAAAAAAAAAAAAAAAAzZB57F/A7s8sCfd/4AAAAAAAAAAAAAAAAAAAAADyMg6Osj5Hq+r6H/qZWDYHvAAAAAAAAAAAAAAAAAAAAACL5R1dKA86A19BepI7AsGX/AKAAAAAAAAAAAAAAAAAAAABF8patlADhhNfV/wCP6U/sGddkAAAAAAAAAAAAAAAAAAAAi+UtWygAEVr6v4tzTewbA9d8AAAAAAAAAAAAAAAAAAAEXylq2UAAHkV9X0J4pValrAAAAAAAAAAAAAAAAAAACL5S1bKAAAdWCV3Wl53CAB5FLjk92wPeAAAAAAAAFC8Y9OczIRGr/wB32AAAACL5S1bKAAACg4Nrb4ACL5SB+rku8AAAAAAAAxhwgsrRH7Vhnnm2eAAAACL5S1bKAA+wnwLJ7YKbqPYAAEXyk0h2ujWECaMskAAAAAAABjHgviX9OtKvaGs9WGeebZ4AAAAIvlLVsoACE5h+WBpUFN1FsEACL5SbI7r5lWKz/SwAAAAAAADGPBpmeGRPFt+9lYZ55tngAAAAi+UtWygCvIRaEqqKh3q7ABTdRbBAAi+UmyO6UJUsp1Y8amoL5XZl1xTRXFT+7oIgVPejo0qeuLKtVHqShPBIrhsgp2BWFIaM49ZgYx4NMzwyD5F/WurDPPNs8AAAAHlZg096wI5k756Owalod6uwAU3UWwQAIvlJsjumaYBPdMRXMXR7XveN0P1omyorlT97G7jPNYNfeuy3DtMzyIZk6kv78H4dB2kz3V09hXX59nAYx4NMzzpUxT0i1T2lYZ55tngAAAABXNYWDakEzKbIq+h3q7ABTdRbBAAi+UmyO7+atoD86CtLJ0cnWj+5xZ9rHva87WQfJ0tP/mP+jw6Jszr435di/vJXhXjciDZj9LX/ACZ7q77Zt49WQAYx4OX9cPyY6S9IrDPPNs8AAAADr9h0secX3W3hZlNkVfQ71dgApuotggARfKT3/wBeZ0U/0pEctfdeewdPHvBpCxc+1ZcN6RbKdpVbaugIPmKwtKQbMXqa+/ZkXxNUyzPdXevrnlAMY8Hsdrq+R89/SMlVhnnm2eAAAACmKUkOourkM1N0szGyKvod6uwAU3UWwQAIvlIckjtG2v3VWf8A3dcBlKL3jcleZtleqqao/XeUfT1rSdLaBtSoaI5vVHk8WlLBz3V1m6IAGMeDTM8ePnKHyLWX2sM882zwAAAAY26bRMzyGam6WZjZFX0O9XYAKbqLYIAEXyk2F3eYKloSRazDKsUvG5Orjr8bFzX0tX5rr3X+dYXr71qdozvTUFyy3PdXWvfwAxjwaZnhAsztce7WGeebZ4AAAAMY8DQ02yGam6WZjZFX0O9XYAKbqLYIAEXyk2R3QQDNPLsTuHFjvp6QsVmWCaJz1cV31NQehKCkeq1bZz9fXv0DPdXWvfwAxjwaZnhXmbWuPdrDPPNs8AAAAGMeBoabZDNTdLMxsir6HersAFN1FsEACL5SbI7oOtkPz7U0B9UtSff152lR0NJY1qOZR/JUoi90Xa83IXDfNuHHHpKz3V1r38AMY8GmZ4jucY172tvtYZ55tngAAAAxjwNDTbIZqbpZmNkVfQ71dgApuotggARfKTZHdArbOv5kUrj0T/WjLHPByQ7+xP0yH4zU8ufaTpVMpR04PZF7s91da9/ADGPB3+Xi6DvaYl6sM882zwAAAAY06rRE0yGam6WZjZFX0O9XYAKbqLYIAEczD91p3AEEpCK/Pstu6chlrw7B0AUNXHe1h+hUNPeS/crvCbqIraz7xAGReE++nN7e9crihefXQAAAAKBqj09V/nIZqbpZmNkVfQ71dgApuotggAAAHT6Xf7QAAAeXx+jzgAAAAAAAAAPA9bs9DHn4az8XMxsir6HersB+f0UrVmvQAAAAAAAAAAAAAAAAAAAFVVZYVzQPMxsir6HersCOZTmdi9yiZ3oYAAAAAAAAAAAAAAAAAAAA+/ETys7Ox6nod6uwPzWVcwbhneiu+AAAAAAAAAAAAAAAAAAAABTkHtiw6iod6uwBw8PcAAAAAAAAAAAAAAAAAAAAAAgmZU700AAAAAAAAAAAAAAAAAAAAAAAr/wLQ74AAAAAAAAAAAAAAAAAAAAAAAAAAAAAAAAAAAAAAAAAAAAAAAAAAAAAAAAAAAAAAAAAAAAAAAAAAAAAAAAAAAAAAAAAAAAAAAAAAAAAAAAAAAAAAAAAAAAAAAAAAAAAAAAAAAAAAAAAAAAAAAAAAAAAAAAAAAAAAAAAAAAAAAAAAAAAAAAAAAAAAAAAAAAAAAAAAAAAAAAAAAAAAAAAAAAAAAAAAAAAAAAAAAAAAAAAAAAAAAAAAAAAAAAAAAAAAAAAAAAAAAAAAAAAAAAAAAAAAAAAAAAAAAAAAAAAAAAAAAAAAAAAAAAAAAAAAAAAAAAAAAAAAAAAAAAAAAAAAAAAAAAAAAAAAAH/xAAcAQEAAwEBAQEBAAAAAAAAAAAABQYHBAIDAQj/2gAIAQIQAAAA/nsAAAAAAAAAAAAAAAAAAAAAAAAAAAAAAAAAAAAAAAAAAAAAAAAAAAAAAAAAAAAAAAAAAAAAAAAAAAAAAAAAAAACa0X412sR4AAAAAAAAAAGmUbksVn7YOsQ3kAAAAAAAAAA02gcJ7m7RMR1Zr3xAAAAAAAAABptA4QfsnZrDB0AH0sb5wXxAAAAk5RxQqc54sAA02gcIdX2j37rmSeQ7t0qvd24zxAAAA0C5QFkpmd67B58AAabQOF+zsTqM9hXlrWUeA79xwb47fQqjbO6Br1mj4iy8cPaYXmuH0qXFa4+cpXloEtlN8s+Oa7B58AAWCE+8zF7ln09O4J5a1lHgO/ccH6Nqyu+fCAvebTHRme41/L90xfVYbntOLbUreceWgWyr2rNK5rsHnwABc4u1XrHdjoUxPYJ5a1lHgO/dOP1TqfsuEfG/wA9QtPyjRZLLNLzHZ89/NCxPWqPShoFpqFlZDrkHnwAD3vdejrxj2w0KYnsE8tayjwHfuOGcviZ2PB/ne7Fku61KCvELx1vYcy/Pys7NnNXGgS2Uy22YTqMHnwAD6b3Xo28Y9sNCmJ7BPLWso8B37jg3we9ohq9oOdVHV7Lh95vOORW21evd9H27OauNAtdSsrHtbg8+AAetxrnzvGPbDQpiewTy1rKPAfe60f5nVdeqt1v8m5mlylmo/mQuf1rdbudfjBPT6Pq/wArXxQIAB9vFvvWW7VQpiewu4QOjZB5B+/gAAAAAAAAHTsNCuc5g1in6vBgAAAAAAAAAAu0tmYAAAAAAAAAAAAAAAAAAAAAAAAAAAAAAAAAAAAAAAAAAAAAAAAAAAAAAAAAAAAAAAAAAAAAAAAAAAAAAAAAAAAAAAAAAAAD/8QAGgEBAAMBAQEAAAAAAAAAAAAAAAQFBgMBAv/aAAgBAxAAAADYAAAAAAAAAAAAAAAAAAAAAAAAAAAAAAAAAAAAAAAAAAAAAAAAAAAAAAAAAAAAAAAAAAAAAAAAAAAAAAAAAAAAARqj6lzewAAAAAAAAAAFLafcSFylTZIAAAAAAAAAApLbqeRoMftNl/QAAAAAAAAAKS26gcIUSVag+Yb6lfQAAAHDh70ko313AAKS26h8fHYoL70OWYnc+Ok6AAAAqa6XCsrfPyrYAApLbqRe9HF1HqgvvQ5ZjU/WatZ8DlLlw+veH0kQZP3XJ/SD1jWPqp4XtVD0NBJtgACJJ+Y3fMW8SLqvVBfehyzGp+M3e1X3Lq7iP8XWZl3WY0lFI+4OkzaZceqmBOgXUygk2wABXd4FXos7aR4uq9UF96HLL9FhY5zU/VVEtaS+qON5S3ebuFRpaCzshUwbCF7oKCTbAAPMrL7VmiztpHi6r1QX3ocsxp+nsfOan6q4l9l58urk9JmeuvfZmdt5wqeF7HzWppJNsAA8ysvtWaHPWkeLqvVBfehyzGp+3mbky6m4n0MPT1dXopGZnS+NpmrecKmDPhNDQybYAB5mZntZoc9aR4uq9UF96HzW2fpzrviXNRo9jwh2XvKt8lza6X2EWI6zvqB1lAAHz7X1d5m7SPF1FdKqNCAAAAAAAAAAfGeta2LqocWbKAAAAAAAAAABWx7oAAAAAAAAAAAAAAAAAAAAAAAAAAAAAAAAAAAAAAAAAAAAAAAAAAAAAAAAAAAAAAAAAAAAAAAAAAAAAAAAAAAAAAAAAAAAB//EADMQAAEDAwIEBQMEAgIDAAAAAAUCAwQBBgcAECA0NTYREhUXMBMUQBZQYHAhIyIxMqCw/9oACAEBAAEIAP8A34ZUqNCjuyZRrLFELW0Grku7aq8dDstEWq0SRG5Etcj5UqZfZkt0dY/om/7pdNknIUeFBlkJDcWG3i251s/UqStY+J81ZmoZGeOc+pDGZQuGH5UyxmUgEvwTMgkxxNH1IP8AQp+WqADLykV1jQIxAAtz67ErTt4t5qyyeJIy/MsYSsG6BnmqpaFtKUhbTrrK0uNDchXQN8qajctQnPKkkNucAX8KQ/6CvTtU3tZXaoPiniBZRPlnE8VA5XmVBJYxuSF4qjS4E2A59KZoZdtxCfImKMy3IR4IJjb9tgn4UQhaHE0Wj+fXp2qb2srtUJ8MiNHlt1akEscWwQ8ymyeJyrHmWOJADQnntQDJUWrzQRmVTcXypnjcm23O8qJESbDnN/Vifzu9O1Te1ldqhPkrSlaVpUlZVtFPGrxLEf8A5LFk7KuUV5qv1pVNa0rHkyYjiXYw3JNzwPBLo3LAl/wSQHHgxalPsP5xenapvayu1Qn4BG3wpelfviWJxT/mWOJY3ueB5lNvxpEVxTUilaprSqRt73MLqmjNu5Phz3G4pelaVpStP5renapvayu1Qn4cuDCnt/SmE8Y23N8VRi2LjsFDrsJaFNrWheMLndlJWDmfKfIuiQxCe17tmte7ZrXu2a17tmtN5cK0r/thZcgLrSk0Rc4M5/xgfuj2WDLbrqKe7ZrXu2a17tmtUy2Z1Fy9XxpSWIvy3DC0NI4L0uKVbIpibG92zWmcsGXHWkV/OvTtU3tZXaoT8bKwhiJPgkWbUlKh3IFeT8t6dqm+NC1trStFmZGeo6yNOfucnmZHHZt/SgzrMIk24282263tljtyHtG5mP8An3p2qb2srtUJ8p2/gAJ1cdcbLIVx2iJEGfDJRm5UPiy/y4LQLrQj5r07VN7wcd2o9CiOr9trR1KxZbb9K/QuXH5a321ym9sa3CssJVBkfuUnmZG1jWpbxW24kub+g7R1JxxaT6a0TdONpIdh2cN2xYXcnB5EB3bLPbkPaNzMf8+9O1Te1ldqhPkv866CArVGrWta1rXWOz74o7Hh14sv8uC0D60I+a9O1Te4zp0DdaUrSpCrzCIA3BMis6xnMVGuqM1+w/5/Ck8zI2xr2jA3rSlaVpW44LY06WhtaxF5vvzG+We3Ie0bmY/5969qnNrK7VCfBc2RBgJ5yHGby4Uo5SrltXeLuZtVI+su9OEbguth+PL/AC4LQPrQj5r07VN7jOnQODLiUUKil7WT40uoJuaPigEf65AxlYpIUpAuXc1wza1q/WXKrWtaxy5WLWlY4zJNzQKpo/bV8CLi8GabZFLngcUfLF+4t46tm/7hkHhjBHfINxS7fFRlQPcW8dB8iXJUqOTO3yLdpUFLHRBfuLeOscnrhPvkXSW1wXQJtxnzzC+Tj89S0QpJcrMrWslE2Y2qikDr4ucatNUWvkaAacbhz98h3WeBGIsUb7i3jrHd0nTpOcwSu++YltUrFYIXjcpFyq3h9y3BGlsKa45PMyNsa9owN61omla1PzkkjZSYjWJxq44ueQXtlntyHtG5mP8AnnB6ioclARW07kpMpD0BHrEhhsBfFdpVwLbxKazWqlKrWuhJKQIJQ58dpxDzbbqMu9NEbg+tCOPL/LgtA+tCPmvTtU3uM6dA4Mkk2yNzPIa1jaGqVdcNymrtuiPbI6rtSRKcXluzJ2okGbPco1DpZV1KT5qTRZIaqiZukLW2tLiLAvKpxj06fq9RvqlslGaabWppxDiB0xJCBCmI2yqR+5OsQqbAJ/qYUXN3v2f6hdRRVNY4G/YWxGWrV4XWxbMDzJmzpZGU7Kl6GWLcxVtLzMrGl1RkVWmRGkRHlsSaf4rTWObucLMKFT9ss9xQdrFMNgVHyC5Up+bJflSNRuZj/BJ5mRtjbtGBtMJjhyKrm3nkVqdHeGBtW1bk25CCI0eDCjjocaHG2yz25D2jczH/AGS7sgxrfdVBh1yZdal1VS1MktFn2YBTWSe0p/AM6dA1l3pojcH1oRx5f5cFoH1oR816dqm9xnTR+y1obSpa7tyNCgsPQwylKWpSlaxaCXBGPlH1qShKlruo65cJmVMrqybOcuaSt2RAHQhcZEaFp+OxKaWzIv2yEA60JDtDJ8gVPiTo8CYyQhRZrNaUVSqanR1RJgjBrrGs/wC9teO3XVa0TSqlGyFShcjOqlha2HX06xXP+5t52JXUyS3DiSpTj7y5L7z7kKK5OmRYjUaO3EjR4zTrjbLTjrtyG3rgMS57msdWYzRhk4S2vi1WD4x55rw0HJPBycIgyy63IZaea1lnuGDtRSqUUmlkWFU4ihElFABITVGo0+1QBJP+/jk8zI2Q+83Tyo+5k6rWtf8AvVtAwBJ1upQQPGDYTTAzfLPbkPaNzMf9gdlxGFUS9StFUpWmiUv7AcQmafedkvOvvapWtK0rS1yDpW3xMx7JPaU/gGdOgay700RuD60I48v8uC0D60I+a9O1Te6LquRtCUI/VtzalkyU/m9rJst+4ZKJcptCGkIbbv0hUdaxNadJTVakpSAEtBBEEe3uRgsEoMuE/JjuRJMiM7rGE1Uq2Usq1lcb9uaiT06xHP8AJMKj66vQj6ZbJV6mgdvVk49uGZtiefRgzOhK1kWf9jas6lNYzG/fXK0+rWRCFYFrTaI0FgVKlh0DTbaGkIbb3uWKmFcBmOjViy1TLUDOK1lnuGDsAFqMmR4+jDDMZlphn4ZPMyNodvnJ7CZET9JXNp63j8elauqSpNa0roHcpgA/RyFbFzwrmg1fY2yz25D2jczH/PyBfMqLJcDiVuOOrUtYC6i1vSELjCyUYuPiz41ydvHuCwu0Qusldoz+AZ06BrLvTRG4PrQjjy/y4LQPrQj5r07VN7+FdeFdIZddV5Wx9m3MSrT6ADFcaMtD5lpppltDTWstPeUIPZ2thhMm4gjSuG9WaMXUbRTWIHPGMca2yaN++ttb6dWQQ9NugS7XWXCPlYFDU0pWtaUoFFNjwMAYsjDWOnzYTlqz/TLiESq6y7P/AMiB1NYoG/bh5hBesuvVSOEM7R5D8V5D8f8AU1x6/Utx6/Utx6/U1x6fffkuref1jGta2qxtlnuGDtimMl6433q/FJ5mRtjbtKBuWt8Obbq3PvC03rXnISnVrHHbfMxJlKVoqlK01lntyHtG5mP+eReXJITn3NsUuLXbT6VXJ28e4LC7RC6yV2jP4BnToGsu9NEbg+tCOPL/AC4LQPrQj5r07VN7jY0eo6BWv20bVKUpSlKcGXEVqKFL2tF2jNzglV4b5cS5dZqqdYgb8I513adEbnwpcNyQw5FffjutrU24haRkxJEdBmJyAR9RukhWlmjvU7lFMV1k0f8AZ3M4+n/qugM/1MMMm6yDP++uol4UpWtaUoBHUEhhsGmsvIrWGEXsMHSS06PBi+2F1a9sLq17YXVr2wurXthdWvbC6dWSGmggaIM3WWe4YO2JOtE/jk8zI2xr2jA4Mkw0SbUmOV2teRWVboR6uss9uQ9o3Mx/z5PMyN8T9uTNXJ26e4LC7RC6yV2jP4BnToGsu9NEbg+tCOPL/LgtA+tCPmvTtU3uM6dA48mQlS7VkLTqO85GfZfbHTmSUCJNY3feajMPPukZiiE+dNXrGEGsW2aPK2yMN9PuiYtOrENobsh59111b7zrzmIx1avFSatZaH/WGDiCdY1Lt0tSXR6TIclSZEhyyhvqlzCma7ZTiVfttD9NAJ9BZoXNVStFUpWnHlnuGDtiTrRL45PMyNsa9owODJs9uLbDsau1rx6xbcCMq1lntyHtG5mP+fJ5mRviftyZq5O3T3BYXaIXWSu0Z/AM6dA1l3pojcH1oRx5f5cFoH1oR816dqm9xnToHHMitTokqI8UGviCEuBI1j69WxFfSSSVJWlK07ZGvNhxh0IN0MHSC0+LBjQYbI+FFhsbZaG/VHjiKdDSy4lu3FBpqwRvptrjqV1dY/1S3S0SmgRZY8TdEVOsRjfFZUmrYyOQXFTx632HYr70d7WPr2Ykx2AxLd55qO2t14RdQw4RmQh+2We4YO2JOtEvjk8zI2xt2jA3NXUDBNrrMui5ZVzkPuXtWyFcPmYUFCUpQlKU6yz25D2jczH/AD5PMyN8T9uTNXJ26e4LC7RC6yV2jP4BnToGsu9NEbg+tCOPL/LgtA+tCPmvTtU3uM6dA+DIFn1OR6EIKk1QpSVaEXWeB0oiDTK1yUR5alb3uQu2tp/SELcWhCLBs2oBis+dvc431YAVhbi4SyRKBCQ22hptDbe1xD/SjhSFvYo30y2Brdd8lWi4pazsDYTflyiUJabRlwrSn+yVla4nqeDBM6XML8xDEXUS++We4YO2JOtE/jk8zI2YKE4rdGo/rhrTpUo/TyvbDhs0tLbiQrQtSPbEKtK7ZZ7ch7RuZj/nzm1szZba9sT0rS25Xjcnbp7gsLtELrJXaM/gGdOgay700RuD60I48v8ALgtA+tCPmu9l1+2jDTPoZrVARrx0OTVA+ClXwXTYQ24arlNFrJuMOpX1a0qmtaV1RKlV8KCbHuQupNW7XsMZbtUSV8NyWyThnSbUb0M1rG9vzqXDSZM3yaAmuG2J0P0M1oXbJeaRgxnEJShCEI3rSlaVpW58YNS1uSwhIEYELqmfshtbqqJbF2NcpVSPp2fZjVrJfdVtlEaQmHoTkX0M1rFg4hDLkVyvikgzVZD9aehmtehmtehmtJAnFVolMWybqlqpRAnE0txSFlRAIWCj1YH75QiSpgCI3G9CNajAzVJDFa/nZEtCVGnPmYWhAeebmIiQQQhkEKiDmbk7dPcFhdohdZK7Rn8Azp0DWXemiNwfWhHHl/lwWgfWhH5kgePl1rWT+m7d1HgwYnLfjVpStPCroMK/XzPJt230VpVLEWLGp4Mfv0i1bclufVeiQocBqjUTRWKucLJREONraWtte1pQnR9th4z2Su0Z/AM6dA1l3pojcH1oRv8AURVdUU3y8+1X0ONq3m1Ongraf51eWO6F33CIpVi3Yl36erUxm7Gkszjmsldoz+Ab06BrLvTRG4PrQja75ssdbZaVDpIkJd+tQXkO5hvglQzK4t/wQSIZSt6MyusMyYmHSD0+bjAE5NMVKO/z6+YDpG1yrLO0OK9OlxorEdmkdhhimXemiNwfWhGzjaHW1tuFcVhJlVLgE8a3LA8ymJEaREcUzI8K1rSlLcsAybdQ5IFjIYeCxChfz+58YVkvuzQiMb3etyiK2fYUe3V0mytZd6aI3B9bD8L8aPKT5JDA0dFV54/9C5DCPGQC1R9seg3y1wRX/wCjTuOQZl5clqLiKCh2lZY0XBERG4kH/wCCD//EAE4QAAIBAQMFCQwFCwMEAwAAAAECAxEABBAFMVNUshITICFBUWFxsSIwMkJSVWKBkpOhsyNAcpGiFDRDUGBwc5TC0dJjg8EGJDOCNaCw/9oACAEBAAk/AP8A78M6RRRrV3c0AFriGGnn/wCEFr5EOjeUtk6GdfKiJja18a6yHxbwu4/EKi0qSRnM6MGB9Y/cVKRcbq5VQM0kgzva7yTTOaKiCpsbojaIy918ARbJc6oM8ijdp7S1GF9mgbnjcrYQ3xPTXcP96Winub9I3xPvW1+hnWlTvbhiOsfuGajx3SVkPM25NMEBvF9qzOc4jBoq45KhLnPIg3t/aSlspvHzRzjdj2ltk4zx+Xdzvvwz2RlYHjDAgg2kZHBqGUkEHnBFr/8AlMY8S8DfPj4VsmyQ87wnfFtlSB3OaMncP7LUP7g9WOGrDhZPgn6XQEjqOcWvE90f3sY9TWSK+J/pNRvZe11lgfyZEKH44ZUmCLmjc74gHQr1tkxH55IG3J9k2yisD+ReBvR+89zZwykVDKag/t/qxw1Yd5gjljOdJFDKfUbXZ7rIeWBqD2TUWvsN5XkRxvT2ybPEvllap6mFRhlCeDjrRHIU9YzG12gvaDOab1J962eW5yc0q1T2lteop08qNw4+H7eascNWHfBUG2S40kP6SH6Jvw2yr1R3hf60tkuV4x+kh+lX8NgQc1rxJFIMzxsUYesWvCXuPyZ1qfaWhtcprs3K6fSpbKUExPiBqP7J4/251Y4asPqGTYJW8srR/aFDa/zXY+RIBKlrql7Qct3bdH2TQ2gkicZ0dSrD1GxIIOcZ7ZUkkQeJP9Kv4rQrdJW4hMpJiJ7VsQQf221Y4asPqd0hnTyZEDj42E1zf/TbdJ9z2mivkY8VapL7JshVlJBBFCCOQ2kLNEm7urHOUGdO/IrvBFu1Vq0Nsm3L8dsm3L8dsm3L8dsm3L8dslXQj0S62yTNFztE4l7Qtr+jyaJqpJ7LfrXJtyorkePbJty/HbJty/HbJty/HbJty/HbInrim/4ItezBM2aKcbgnqObgwRSu96WIrJWlGVjydVsm3L8dsm3KjOB4/wBf1Y4asPqyBTeg6ygcrx0o1ifzuND9lzuT37Vjw2KsDUEGhBFpt2rELFe2zg80n600r9vDlea4GignjaGzh0dQysDUMCKgjHzjH8t8NKnb9f1Y4asO+yveLwvE0cAB3J5mJtcb1Cvlij2vCTQv4LoeHpJ+xba7Btjv2rHG4yFnhRmO/PnItcJPfPaS9QNyEOHH3NYi93Rc8iAh0HO64uWvFy3KgnO0TeD+s9K/bhkxJZneUFyzDM5AzG2RYvbf+9snvCT40cr1/ESLTtebtGKyIw+lRRtDFiWuUgCfw5KkDHzjH8t8NKnb9f1Y4asO+PubxeHEMbDOgIqWsak8ZwkJu19cROnpt4LDh6WfsW2uwbY79qxx1aLZGKhlYEEEVBBstIHpLCPQfA0W8wyxN7O7Gz+s9K/bhpJts4jiOcWFI4r1IEHMlajDV49rHzjH8t8NKnb9f1Y4asO8RG93pDR1DblIzzMbZKupTmUuGtWK8IKvA/hAc45xhrL7OOuwbY4eln7FtrsG2O/ascdWi2RwPCN0IPUHw1gY3kIDXcION3+yLXaO6x8juBJJbLN7aviiUqvsrQWvMpJ9I2yneo6eRKy2vCXuLlWZeP2hQ2Ju980Eh8L7DcuN93mNpGimG9o/GRVfDBtlce4h/wAbZREl2mmETrvUaeH3INVA4E4jvU94CqSoaiKKtxNbKw9xD/jbKQe7NeI1mG8xDuCaHMvAvQhdomllO4R6gmi+GDbKw9xD/ja/77d4ERQu9IlXc+iBjNWUgmOBOOR7FLlDyBAGk9bG2Ur1KT5crN2m17mUjlVyLZVllUeJOd9U+1ZBdL23EuikPRwL9vMT3JZGG9o9WLsPHBtlce4h/wAbX7fo47ru1G9olG3QHiAWQT39lqI/FjBzF7ZXvCDyIWMSD1JS2Wb4KyICDKzA8fKD3jSv24aSbbOJAA4yTY1Sa8yMh9CvFgv51MqJ0rFj5xj+W+GlTt+vsFaeB0UnMG5LZGvW+7qld7O4691mpZwzwQKrkeVnPDNJVjCxHmeQhQfVWxqSeM4MQ8MgNPKXlU9djVXUMvUbaw+zjrsG2OHpZ+xba7Btjv2rHHVotkcBgUusSwVHlKSWwFVu8csrezuB8ThR7zLVbvFznnPQLXhpZnPGTmHQByAYXSad/JiQufhbId5p1AG1wngJzb4hSvUTg5V1IZWBoQRyg2k/76FKq5zzJ/kMBV0i36Pri7rBiGVgwI5CLZp4I5PbWuLVW6QCo9OXuji1WluyF/tgUb44mqwuIF/2hQ4LR707Tt1HiX4DAK97mBEEZ229EWnaWaRqs7YZOMcTCoeYiP4HjtdoZ6DNFKCfualoHilQ0ZHUqwPSDbitLur3ClYpDnlj/uMfNyfMfAAmPJ9I18qRnAUWkLyyuXdjnJOGkTt7xpX7cNJNtnC/QQKNI4WxfepAVmvJBUsvkoMBSJSDPN4saWTcRQxhEHQMfOMfy3w0qdv6kiW8X0eHU/RxdfObXqADyRCpFoUgvEhCxypxRu3MQcxw0kO2OBq0WyLaw+zjrsG2OHpZ+xba7Btjv2rHHVotkYOFUCpYmgA5ybTrPeyCDOvHHF0g5mazEsSSSeMknBKSXwgRAjNEn+ViAoBJJzACzHeQSkCnxYlzYFkuMBAkcZ3byFtdUhiXxUFPWec4QpLG4oyOoZSOkGyt+RO9Hjz7yx/pODUkgkDjppnB6DY1jniSRephWwBBFCDYcUM7KvSmdT6xgavdZZITtjawIAAqSeQWPFNO7r0LXuR6hYEqjorHpetOzBu6ut4YAcySd2MPAhieRupBU2NXkkZ2PSxqbeHNKka9bmlhSOGNY0HMqigswWNFLOxzBQKk2J3DNuYk8mNfBGEAZ37q6xPmVdIRs4wgX+BC0LjO4GeM4V3cMoanlDMR6xZgySIHQjMQwqDh5uT5j4E0NKixdLlX6NBxNNTsW2Srqij/AElJ9ZPGbZLgDg1EkaiNwete8aV+3CZ1HMGIFrxJ7RscP+o4LsuhAZXPQXcBRaKNLvnBQ7rd+kW5TwPOMfy3w0qdv6gvUMZOYO4BNuMHjBwWu8XaWWn8NS1nLySOXdmNSWJqScDQjNYkySQDdk52Ze5J9dLaSHbHA1aLZFtYfZx12DbHD0s/Yttdg2x37Vjjlu+BVAAAlbiAtl6++9a2ULzP/FkZ+3GNkydG9WbMZSPEWyhUQBVUCgAGYAWajzKIF/3DQ/DAVJIAsoBijG+HypDxseAoMc8TRt0V5bCjxSNG46VNDgam7XiSIdRo42sFot7go3S8WB4pIkmQfwzuTtYNR3i3lOuXuME+llkEsf2Lrg1Bebtuh0tEcDR7wyQL/wCxqfgDgtUukTzevwFwaj3lku46nNW+AwrSe8IjdCk8dlCoihVAzADiA4C0RL5LuRzKWqMDUpEYvdMUGHm5PmPhWk0wDEciDjY+oWjCRxoERQKAKBQDvWlftwyVepomJAdIyQaWyDfvdNbIl+Qc5gcCwIIzgjC9EJ48LndRP1rbuJk4p4CalD/Y4+cY/lvhpU7fr829MgpeZ18IMfEWzszE1JJqbTs0Fe7u7kmNx/wemzExTJuhXOOcHpBt5uvPyzwNE+2baSHbHA1aLZFtYfZx12DbHD0s/Yttdg2x37VjwYnc8ygk2yROqnx5RvS/jtOLwwNRBFUR+s2jVEQBVVRQADMABh499DewhwFVN9hqOcBgTwuW8l/eANgfBkgan2g2C1kukySj7J7hsDRHl3l+qUbjBvDd55B0L3K2HHzWQEJdRHKvOzDu/vJt4UE7xnp3BpZqKt4VXPMkncN8DgeR532FwWjXqfcr0pFhme8SN7C4TyRSp4MkbFWHURbL+Uf5mT+9sv5R/mZP72y/lH+Zk/vbL+Uf5mT+9pnllc1d3YszHnJOGsS4ebk+Y+A/8Fydl62IXvelftw0k22cbjFITmkpSRephx2cyXSapglPxVukYMd63QSdfKjbPYgggEEYecY/lvhpU7fr5JeSeR2PSzE4sSEv8ir0DcKbebrz8s8DRPtm2kh2xwNWi2RbWH2cddg2xw9LP2LbXYNsd+1Y4wR/m8fijyRa7x+yLAAcHML0R964HPfI19s7nhckwX1qoGHjSQL7IbDwJ4XibqcUstJIpGRxzFTQ2JDKwIPMRbNPBHL7QBpZqpdyLun+3n+Nlqgm32T7Mfd4LRL3CkvrHcHswNTNdo2boalG+NmqkBWBejcDj+NhUk2FDDAof7Z42+OGYTTD7wMApmmJCBjQVAraK7e9Fort74Wiu3vhaK7e+Fort74Wiu3vhYIJRNIxCtuhQ4ebk+Y+Gpf1jvelftw0k22eAtXu8kUqe0EO1iak3KIE9KrQ4ecY/lvhpU7fr+lftx84yfLS3m68/LPA0T7ZtpIdscDVotkW1h9nHXYNscPSz9i212DbHftWOOrRbI4YqbtNHN/QdrA0eN1dT0qaixrHPEsg460rydY4DBY4kZ3Y8iqKk28KeeSU/wDu1cFob1eJJR9kUQbOK0S9Kt4Xrbib4jBv/jhOG6lG+CzVd3Z2PSxqbL4CLBGelu6bAcd3nMbfZlGD8VwklJ/hkb5Y1eWRpG62NTZaoku/SfZi7rEfm96jcnmVgUwJCQ3lGf7FaNYgg83ePNyfMfDUv6x3vSv24aSbbPAbu73NHGo6EIc9mIoRc4iR0stcPOMfy3w0qdv1/Sv24+cZPlpbzdeflngaJ9s20kO2OBq0WyLaw+zjrsG2OHpZ+xba7Btjv2rHHVotkcMVjmieN+phSw7uCQoTzjkI6DhJS6O9YZTmiY5wfRNmBVgCrA1BBzEYzByxpepUNR/DGC1kmkCjo5yegWH0cESxr1KKYrxwTGJ/syYPQXprsB6mJOC0ecG8P/ucY+GAqxgZ0Hpx92MGI/KrnGAOciQKfg5wXMFu8e22NKTwsgJ5G5D6jZCkkTsjqc4KmhGEwSeIBLvKxoJVGZOscCVI41FWZyFAHOSbM0q3eMM02ZGJNKLj5uT5j4al/WO96V+3DSTbZxvqGUZoIyHlJ6rLuIkG5ghrUIuA+jLh5m8mJTVjZaACgAw84x/LfDSp2/X9K/bj5xk+WlvN15+WeBon2zbSQ7Y4GrRbItrD7OOuwbY4eln7FtrsG2O/ascdWi2R3hK36BKFBnmTm6xYEEEggihGGUHWLRPR0+5rXe4E+UY3rtWygUhYUMUIEakdNMFLOxAUAEkk2Qfl0yUC6FObrPAFWeAlB6ad0vxGOeedI+oMbKAiKFUDkA4gMRRYrw4T7BNVxWjzJv79cvGPhwIag/naL8zG+7/EM0c43wffntkq6E9BcWu9zg9IIWb8RtlCabjqFZqIOpRQC2rJtY+bk+Y+Gpf1jvelftwyjeYoxmRJWVR6gbZXvvv3tlK9OOZpWIxu7zTOeJV7TzCxWS+TUM8vYq9Ax84x/LfDSp2/XxRlmkUjpBxGfKEmwlvN15+WeBon2zbSQ7Y4GrRbItrD7OOuwbY4eln7FtrsG2O/Rs7tdyFVQSTbJF99w9skX33D2BDC7xgg5wdz3k/k190qiqyfbFsnvLEP0sAMiU9XGLDAEm2T3giOeaf6Nf7mx/Kb7pmFAn2BwsmXl4N/ZomjiZl3D90ACBbJF99w9rjPCl2gd1MsZUF27gZ+Bcp5lnu4DmNC9Hj4uS2SL77h7ZNvUaSzoju8LKFUnjJJFlAVQAAMwA4A4rMkMh42uz8UZ+weS2Tp4fTKkp6mFQcULMcwAqTbJzwxn9JPWIfHjNr2Z7zMgVyBuUABrRcbjeJkFwRS0cbOAd29skX33D2uM8Km50BkjKAndjveSb4QZGzQPz2yRffcPbJF99w9skX33D2yNfieYQPbIl4X+KN626WyhHEnLHB3b+0bXRYwfDfO7n0mOfgXeWZxf42KxqXNAj2yRffcPbJN9AEi54H5+r6/CZLtOd3OF4zE5zt9lsLu0jnOfFQc7HkFjuhEvdPm3bnjLW83Xn5Z4GifbNtJDtjgatFsi2sPs467Btjh6WfsW2uwbY+uXG7zfxI1fttkHJ38tH/a1zgh/hxqnZ9XAI6bZHuUh53gRu0WyFk8HnF2jB7LXaKIcyIF7P1/kW6FyakiMLU9NLXWKCPyI0CD4YeFPdZoh1upWylWVirA5wRiCHW7hmBzgud3T420kO2OBq0WyLaw+zjrsG2MXXdDOtePgN9IN+kI9E0Atna/QbY/bt0jvL8c0L8SyHnB5DbI0tecFSv3g2KExndJdQd0K88hw0kO2OBq0WyLaw+zjrsG2MKiZIRuSM6hmClvUDaeQS1ruwxDV562vYvUY8S8jd/i4ja5TXZ/Lj+lSyz3qWncruDGvrLWesj5lHgoozKtkO8XPMTmaVxQD9vwTIqLKo597YMcU3Uk0iog5yxpYkiONUB5wopbWH2cddg2xgiujgqysKggihBtPNc3Pi/+SP7jaFL5HzwnuvZNoJIpFzrIpUj1GwJ6LRPdLpxFpZFozj0FNotxDGOIcpPKx6T+4CSNN2SWuz8S19A2yciDy2njp8CbSrPfaEAjwIgfJw1h9nHXYNscGCOVfJdQw+42uF2ibnjiVD8B+4ZC091kEyKM7ACjAYp9Bc3E0j9K+AP3Gl7nO3hGIAox5ytsszSp5McQiP3kta7LFEvIM5POTyn/APBC/8QARREAAQMDAQMGCwUFBwUAAAAAAQIDBAAFEQYSITEQEzI1QXIUIDNRYXFzgYKRsRYiNDZAIzBSksJCUFRgYnShFVOAkMH/2gAIAQIBAT8A/wDP+yWhy7Sg2DhtO9aq/wCn6etiEtPIZCj2r4mntO2O4J22MJJ7W1VL0VKbyqK+lz0HcalWq4Q88/GWkecCt4/yHolCRCkrA3l2rw849cpalqJIcIHupiVIjq2mXloPoNQ9XXOPgOKS6n/VxqLrC3SMIlMlsnzjIpcDT13SSgNFR7UHBqXokYKokn1JVUvT11h5K4pUB2o3ilIUgkKGD6f8gaK6vk+1q59YTPbK+viIcW2coWUnzg1D1JdohAEgrSOxe+omtmlYTMilPpTQkadvAwosEnz7lVL0bCeyuK+pH/IqXpS6xslLYdT50GnY77Cil1pST6Rj+/dFdXyfa1c+sJntVfXxwSDkGot5uUMjmZS8DsJyKh62eQQmVHCh2lO6mr5YrmEod2AT/ZcFah00yywqZCGABlaB9R47LS3nW2kY2lqAHvr7I3j+Bv8Amr7I3j+Bv507pW8NJKiwFeo0/HfjLKH2lNkdhH6q3WmZdC54MlJ2MZycca+yN4/gb/mr7I3j/to/mqVp+6xE5XFUR2lJzRBBII5IWnrjcGEvsJRsE4GTVxtMu1lrwlKRt8MHPD9Borq+T7Wrn1hM9qr6+NFhypq9iOypZ7QKl2qfBAU/HUgHtO8coqyuKk6dHOHay2oHPmpYwpQ9PjWzrCH7VP1oHCM+ZOaXrC1oWpCg5kHBwKhaktc5YbQ6UrPYvdVwtsS5MKaebG8bldoq4Q3IEt2O5/ZO4+cfqdDdKd8FXS5tWpgPupJSVgbqRrS2lWCh0VDnRbg1zsdYUmtW2VlDJnx0AKHlByaS6nZ7yq1z0oPxfoNFdXyfa1c+sJntVfXlxUbTV3ksh1DACSMjaODUmK/EeU0+0ULA4GtIsNItKHQkbTijk1cmG5EKQ04kEFs0oAKUB2Hl09+Xkd1dL6avX41s6wh+1T9aV5L4alfiHu+aSopP3Tg8c1ZZC5VsiOr4lsZrWqEpuLSh2s0ww9IcS202VKPAAVF0ZcHkhTzqGvRxNHQzmN0wfKrhpq5W8Fwo5xscVJ7OS36YlXKK3JafaCVZ3HORirraJFpdbQ8UqC05BHJbdMTLlGTIQ4hKScAGrtZZFoU2l5aSF7wU15xUHSk6dFakIdbSFjIBzmrjBVbZJjrcStSQM4qPHelOpaZbK1E8AKi6JmuJCn30o9HGntEPgZalJUfMRU23yre6WpLRSrs8xHJE0lNmR2n0PtBK0ggGnrFNbuAgoAccwCSnhvo6KkoZUtctAUBwxShsqUD2Hl0N0p3wVrPqtHtxyaH50Py+PN7A+daodQ1ZpIWRlRAA5NJdTs95Va56UL4v0Fn1A/aGnmkNJWlfn7DTzqn3XHV9JaiT76gwJNweDMdvaV29gFS9K3SKyXthKwOISd4q1NpcuUJCxkF5II99ABIAArXDKMQ3ABtEqBNaT6nj95VSvwz3cNL6avXy6e/LyO6ul9NXr8a2dYQ/ap+tHyR7tSQfCHu+agWyXPeQ20yrBIyrsAqFGTDisMAjCEgZrVMoTbspCDkIAQMdprT9latsVCloy8sAqJ+lXnUzFsXzLaA472jsFM63f5z9rFRsZ7DvqFNjXKKHmVbSFcRWq7QmDITIZThp35BVaJl7TUmITwUFitbRduGzIA8m5g+o0lJUsJA3k1bI4hW+K0cDZQM+s1rOLztvQ8BvbX9aaQXXG0AZKlAAeuozaYcJpHANtD/gVOfVNnvugElbhAFWCztWuIlRSC8sArUavOrBEfVHiJC1JOFLNWrWLzshDUxtOyo4209lXm3NXOC4ggbYTlCvTS0FC1IPFJINWLqqF7JNSVwrWZE99QCl4Ge3d2Cla1iLK0GK4EHIzSzlSj5yTy6G6U74KvVrN2ihgObGFhWab0MnP7SYSM8AKjxYdjiFLTatnirAySa1BenLm8GwlSGkcEn6nk0l1Oz3lVrnpQvi/QWvSD0xhLz7/NhYykYyavVgftBSsr22lHAXWiWkiNKcwNrbpQCkqGKjpCNSISkYAmf1cmuPJQe8qtJ9TR+8qpX4V7uml9NXr5dPfl5HdXS+mr1+NbOsIftU/Wh0U8OHCjFgZyWWfkKL8KIhRLjTYHpAq9asZShTEBW2s8XOwVY2vCrtECznLu0fTjfT7nNMOudiUE1JdU++84sklSySeTRElXOyY5JxgKArVrSXLQ6ojoKSa0zL8FuzOThLn3D76vUbwu2TGsZPNlQ9YqxRDLusVvG4LyfUmtR3HwBmIlJ3qeT8k1c2RPtUhI37bRIrT8UyLxFQRuQsqPw1qKUIdpkEHBUNge+rA0JF2iJV/Hn5U6ha2nEIISSggGl6IkrUVGanJOejQ0PISQROR/LTLam2G21nKgkJJq8ICLpOSOHOqqxdUwvZJrWktS5jUbJ2UIyR4uhulO+Cr9c3LVES+hAUSsJwaTriTn78RHuUatGpIl1WGSnm3sdE7wav1ij3GM4ttAS+lJIIHGlApUUniDitJdTs95Va56UL4v37XlG+8Kj4DDI/0CtXAGzuEjgtNaJ/Byfa0aa/Myf95/Vya48lB7yq0l1NH7xqV+Fe7ppfTV6+XT35eR3V0vpq9fjWzrCH7VP1o+SPdqTIf8IeHPL6Z7aU44vpLUfWeTT7iWrvCKjuK8fOpKOdjvN9i0KHzFPIU064hQIKVEEHk0QyoyJT+/ASEVq10N2l5JPTISBTSy0424k70kGobyZkJlwbw42K05bTHulzWU4DayhHvrWEvn7iGQdzSce81p2SJlni9pSnZV7q0/bTHvF0WU7kKKU/Ec1raX96LESeGVmtOOJbvENSuG3j5ipCnEsOqa3rSgkClaxuqVEFLQIPmr7Z3TzNfKvtldO1DVSZDkuQ6+5jaWdo49NWLqmF7IVq7rdzuJ8XQ3SnfBWs+q0e2HJYw6bpC5sbw6M+ql70nPmq4bPh0vZ4c6rHzrSXU7PeVWuelC+L9+15RvvimPItdwVq3qd3vprRP4KT7WjTX5mT/vP6uTXHkoPeVWkupo/eNSvwr3dNL6avXy6e/LyO6ul9NXr8a2dYQ/ap+tK8ke7Un8Q/3zytrLS0uJO9JBHrFWW6tXKIhSVDnAAFp8xq96WROdMiMsIcPSB4KpnRdyUsc640lOd5BzVut8e1RA02RgdJXaTWqrwidJRHZVltrtHaqhWjpfP24sk/eaVj3GubajJkvbhtfeV7hU59UqXIeP8AbWTWiJWUyopPmWKbZQ0464BvUrJ9wrUEsy7rKXnKQrZHupl1TDzbieklQUPWKtc9m5Q2nUKG0U4UPMavGkvCXVPxFpSpRypBpGkLupQBQgDz5qVpVu3W2VJfc23UpGyBuA5LF1TC9kK1d1uvup8XQ3SnfBV8tartFSwl0IIWFcKGhnMjM1PuTVo07EtStsErd/iNX+8s22MsJUC8pOEJ/wDtKJUok8TvrSXU7PeVWuelC+L9+ghKkk9hBq2TWJsNhxtYP3BkeatYT2EQRFCwXFqG7zAVon8FJ9rRpr8zJ/3n9XJrjyUHvKrSXU0fvGpX4V7uml9NXr5dPfl5HdXS+mr1+NGeMd9l4JBKFhWD6KOuHSnHgSeGOlTqy44tZGNok+JDmyIDwdYdKD9ai63cSkCRFCj50ml64jAfs4a8+k1ctUTrgktAhps9ieJ5bNe3LO46pLe2FpxipmsXpUV5gRkp5xJTkK5LTdHLTK8ISgLGyQU05rd5SFo8ESCoYBCqWoqUpR7Tnkt9zl2xzbjuYzxHYaj64GyOehkntKTS9csYPNwl59Jq6amnXJtbOEttq4p5IWsHIcVlhMRJCEgZKqu1xN0lmQWwgkAEDxbJfFWYvYZC+cx/xX25e/wSP5qOuXv8Ej+apOsri8kpaShr0jeaeeefWpby1KUeJJ5LXqhy1xExhGSvBJzmr3fF3kskshGxngc/oGpMhjPNPLR3TiluOOqKlrKieJJzWk7wxAW6xIVsoWchR4A1MvluisKc8JbVuyEpOSTVue8IvsZ4jpyQr5nk1x5KD3lVpLqaP3jUr8K93TTTJkSkMhQBccCQT2EmpOiZCEBUeSlZ7QoYpWnbul0NeBrJJ4jhSG02SwqbeWNpDZz6zSjlSj6f7+JJqJIMWUw+BvbWFfKol/tklgO+FIRuyQo4NapvDFxfZaYOUNZ+95ya0n1Mx3jUn8M93DRJS4pSTghWQahaqusTALgdSOxdJ1yjYG1CVt+hVXe/SrqoBwhDYO5A/wAh6b1E1AaMSUDscULHZV41XC8FcZiLK1rGNrGAPEG7/wBFv//EADwRAAEDAgIHBgMFCAMBAAAAAAEAAgMEEQUxEBIhMjNBcRMgNFFygSJhkRUwQENSFCNCUFNgYoOAkKHR/9oACAEDAQE/AP8An/U1Ap2F3PkF21XMS5pdZNrKqI2f/wChR4lG6wewtTJ4pN2QH+xMTP71g/xVO0MiZYcgnMY4Wc0FSUEL9o+FPw+Vm2N4KEtZAbG9go8T/W0dQo6uCTJ6FjkR/YGJcVnpUHBj9I7hAOYUlHBJm0DopMMIuY3krUrKfLWTMSlbYSNUddA/ZchB7Hbrgf57iXFZ6VBwY/SPuH00Ml9ZgUmGsO2NyNLVQXLb+ypK1zndnJn599zg0FxyC/b6fzK/b6f9Tvom11O42D017Xi7XA/ipp44La5O1faFN+p30X7fTebvomVdPJsD9MlXFE/VcTdQ1EU19QnZ+AxLis9Kg4MfpHefIyMXebBMnik3X30lVIDa3ZsyQyHem4UnpWZTcPmcAQpaOeIXtcKGd8Dw5pPRQvEsbXg5/icT/K91BCZ36rfJHDZwMwpIpIXAPFiqCpcXdk49NGIcc9Fhe7J7fgMS4rPSoODH6R3H1sDHWLkx7JG6zDdYg8mfVvsChcWSsIObkDcDTV+N+iGQ703Ck9JQ3h1TNxnQIgEWPMqpaGTvA5FYYSYj6kXBgu4iyfiMLSQxpKGJjnGVDWwym17HRLWxwyFjmFQVDJwS0ZaJq2KFxab3Cp6lk4Jby0S10UTywtJIUUomYHgEAp7msBJcLJ+JRA2Y0lNxJp3mWUczJWhzHA6JK+KN5aWm4TaqIxdodgQxKMuADCQgbgHTif5XusN4zvToxPV1Yx/EqFpdUsPIaMQ456LC8pPb8BUUjZ3NcTYhNaGtDRyCklZE3WeVHXwSO1QSFOSIZCD/AAo7c1hjj+8F1X+Kco99vVDIdNNX4z6JuQ703Ck9JQ3h1UZGo3byUs8cQuXKV/aPc8cyqFhip/i57VV1Dpn2Bs0Kmonz7SbNTsMbq/C/apI3wyarhYhUFR2zC1x2tWJR/EyQLDX2kczzCJsL/JTuMkr3fNYa/Vlc39ScQ0OJ5J5Msp+ZUTRHE0HZZqqqh08lhugqmoC9odI7YeSnw9jWF7CbjkqeZ0ErfI5hAgtBHNVXHk6qMSzhkTBsCGGvbY64zQ2AD5acT/K91TTiB5cjiezYxOklqpPicFSUwgbe4J0Yhxz0WF5Se34CfEWxu1WsJIVNVNqL3FiOSxMnWYFzBTiTRkn+nowzekVd4pyj32oZDppq/GfRNyHem4UnpK5rXm/U5asshttKpqB1w6UWHIKpOpTyW/SmDWc0eZTGhrGgeWjE2C0b/IqgNqgbc7qtj7SAqlf2c8Z+diqqTUgeRz2BUcPbGS/IKBxiqG35Gyq36lO8+YsqOPtJ2fI3VU7Vp5E1wDmkoYmwAARlfabLH92ck5wc4kC20lU5vBEeiquPJ1WGxgRGTmT3cT/K91SwCeTVJ5I4Y22yQqoopYBrg3aFSVbongEktKBvYrEOOeiwvKT2+/OTuifvu6rD/EDosT32dNB8H/q0YZvSeyrvFOUe+1DIdNNX4z6JuQ703Ck9JQ3h1TGN1G/CMkGgZAaKppdBIPkoyGvYfIpjg5rSPLRiThqNZzvdUDdacHyTgCC3zCkb2crh5G6rJ9aCADmLlYfHqRaxG8VVsMdQ/rdVc2vTwtvntWGx2D5FVtLqeQfJMtrN1skMOgIBBJX2bD/kvs6HZvJjBGxrRkCqrjydVQeHHdxP8r3WG8d3p0VOr2MoP6UMwouEz0hYhxz0WF5Se335yd0T953VYf4kdFifEZ6VyCPg/wDVowzek9lXeKco99qGQ6aavxn0Tch3puFJ6ShvDqo9xnQaSA4EHyVTA+B52bFTV/ZANftCdiMIHw3JU0z6iS6oKYxMLnbx0YhFqza3Jy1nSFjPYKJupGxvkFibNx/si8uDG+QVJH2cDB8k5ocCD5WU8LoXuBGy6p8Q1AGyZBHEIALglR1xmmYxjdi/+qq48nVUHhx3cT/K91TTdg8uLSV9pi3CKnrHzgC1mhUtM6Z4JGxAWACxDjnosLyk9vvzkeinjdHI4Ec1h8T+11yNgWJ8RnpXII+D/wBWjDN6T2Vd4pyj32oZDppq/GfRNyHee0Oa5vmEMMbn2mRTRqtA7ksbJW2eLhPwxpPwSIYY/wDikChoooiDvHTU0zakNBdYhR4c2N7Ha97aKiBs8eoTY3QwxgIJegLADRNBHO2zwnYZc/DJsQwxwzkFlBRRQkOvcrNS4e2R7nmQi6p4RAwMvcd2pphUWBday+zGn8woYWz+q5Mw6Fmbi7qmtDAA0W0T0TZ3l5eQqemFMHWde/4BzGv3mgoANFgFX07pWtc3aQo6aV7g0sIUrdSme3yZowzek9lXeKco99qLg2Mu8gmYk0mz2WCFZTlpPahFxqasObtF0BYAfz+Rmux7fMKSknY4gRkhUNM6Fri7Mqv8SVHvt6hWBaB8lLQwScrFHDDfZILKnpWQbRtPn/YdbRulcJGZ81T0EuuHSAAf9GP/2Q==;" vertex="1" parent="UEzPUAAOIrF-is8g5C7q-175">
          <mxGeometry x="514.9300000000001" y="345" width="110.15" height="43" as="geometry" />
        </mxCell>
        <mxCell id="nvhU3l79kNzZTu7GIlZF-48" value="Data stored:&amp;nbsp;&lt;br&gt;- logging data&lt;br&gt;- processed images&lt;br&gt;- archived images&amp;nbsp; &amp;nbsp; &amp;nbsp; &amp;nbsp;(TTL: 7 days)" style="text;html=1;strokeColor=none;fillColor=none;align=left;verticalAlign=middle;whiteSpace=wrap;rounded=0;" vertex="1" parent="UEzPUAAOIrF-is8g5C7q-175">
          <mxGeometry x="722.5" y="45" width="110" height="140" as="geometry" />
        </mxCell>
        <mxCell id="nvhU3l79kNzZTu7GIlZF-55" value="2" style="shape=ellipse;perimeter=ellipsePerimeter;fontSize=22;fontStyle=1;shadow=0;strokeColor=#ffffff;fillColor=#10739E;strokeWidth=4;fontColor=#ffffff;align=center;whiteSpace=wrap;html=1;" vertex="1" parent="UEzPUAAOIrF-is8g5C7q-175">
          <mxGeometry x="77" y="230" width="40" height="40" as="geometry" />
        </mxCell>
        <mxCell id="nvhU3l79kNzZTu7GIlZF-57" value="3" style="shape=ellipse;perimeter=ellipsePerimeter;fontSize=22;fontStyle=1;shadow=0;strokeColor=#ffffff;fillColor=#F2931E;strokeWidth=4;fontColor=#ffffff;align=center;whiteSpace=wrap;html=1;" vertex="1" parent="UEzPUAAOIrF-is8g5C7q-175">
          <mxGeometry x="288" y="230" width="40" height="40" as="geometry" />
        </mxCell>
        <mxCell id="nvhU3l79kNzZTu7GIlZF-59" value="4" style="shape=ellipse;perimeter=ellipsePerimeter;fontSize=22;fontStyle=1;shadow=0;strokeColor=#ffffff;fillColor=#AE4132;strokeWidth=4;fontColor=#ffffff;align=center;whiteSpace=wrap;html=1;" vertex="1" parent="UEzPUAAOIrF-is8g5C7q-175">
          <mxGeometry x="489" y="230" width="40" height="40" as="geometry" />
        </mxCell>
        <mxCell id="nvhU3l79kNzZTu7GIlZF-61" value="5" style="shape=ellipse;perimeter=ellipsePerimeter;fontSize=22;fontStyle=1;shadow=0;strokeColor=#ffffff;fillColor=#23445D;strokeWidth=4;fontColor=#ffffff;align=center;whiteSpace=wrap;html=1;" vertex="1" parent="UEzPUAAOIrF-is8g5C7q-175">
          <mxGeometry x="705" y="230" width="40" height="40" as="geometry" />
        </mxCell>
        <mxCell id="nvhU3l79kNzZTu7GIlZF-63" value="6" style="shape=ellipse;perimeter=ellipsePerimeter;fontSize=22;fontStyle=1;shadow=0;strokeColor=#ffffff;fillColor=#12AAB5;strokeWidth=4;fontColor=#ffffff;align=center;whiteSpace=wrap;html=1;" vertex="1" parent="UEzPUAAOIrF-is8g5C7q-175">
          <mxGeometry x="627" y="345" width="40" height="40" as="geometry" />
        </mxCell>
        <mxCell id="nvhU3l79kNzZTu7GIlZF-10" style="edgeStyle=orthogonalEdgeStyle;rounded=0;orthogonalLoop=1;jettySize=auto;html=1;" edge="1" parent="1" source="nvhU3l79kNzZTu7GIlZF-1" target="nvhU3l79kNzZTu7GIlZF-2">
          <mxGeometry relative="1" as="geometry">
            <Array as="points">
              <mxPoint x="300" y="-465" />
              <mxPoint x="300" y="-465" />
            </Array>
          </mxGeometry>
        </mxCell>
        <mxCell id="nvhU3l79kNzZTu7GIlZF-1" value="" style="sketch=0;outlineConnect=0;fontColor=#232F3E;gradientColor=none;fillColor=#232F3D;strokeColor=none;dashed=0;verticalLabelPosition=bottom;verticalAlign=top;align=center;html=1;fontSize=12;fontStyle=0;aspect=fixed;pointerEvents=1;shape=mxgraph.aws4.client;" vertex="1" parent="1">
          <mxGeometry x="130" y="-515" width="80" height="80" as="geometry" />
        </mxCell>
        <mxCell id="nvhU3l79kNzZTu7GIlZF-7" value="Web App" style="text;html=1;strokeColor=none;fillColor=none;align=center;verticalAlign=middle;whiteSpace=wrap;rounded=0;" vertex="1" parent="1">
          <mxGeometry x="140" y="-435" width="60" height="30" as="geometry" />
        </mxCell>
        <mxCell id="nvhU3l79kNzZTu7GIlZF-27" style="edgeStyle=orthogonalEdgeStyle;rounded=0;orthogonalLoop=1;jettySize=auto;html=1;" edge="1" parent="1" source="nvhU3l79kNzZTu7GIlZF-2" target="nvhU3l79kNzZTu7GIlZF-1">
          <mxGeometry relative="1" as="geometry">
            <Array as="points">
              <mxPoint x="270" y="-485" />
              <mxPoint x="270" y="-485" />
            </Array>
          </mxGeometry>
        </mxCell>
        <mxCell id="nvhU3l79kNzZTu7GIlZF-72" style="edgeStyle=orthogonalEdgeStyle;rounded=0;orthogonalLoop=1;jettySize=auto;html=1;entryX=0;entryY=0.5;entryDx=0;entryDy=0;" edge="1" parent="1">
          <mxGeometry relative="1" as="geometry">
            <mxPoint x="190" y="-320" as="sourcePoint" />
            <mxPoint x="804.9300000000001" y="-318.5" as="targetPoint" />
            <Array as="points">
              <mxPoint x="190" y="-319" />
            </Array>
          </mxGeometry>
        </mxCell>
        <mxCell id="nvhU3l79kNzZTu7GIlZF-41" value="" style="shape=actor;whiteSpace=wrap;html=1;" vertex="1" parent="1">
          <mxGeometry x="150" y="-355" width="40" height="60" as="geometry" />
        </mxCell>
        <mxCell id="nvhU3l79kNzZTu7GIlZF-42" value="BI Team" style="text;html=1;strokeColor=none;fillColor=none;align=center;verticalAlign=middle;whiteSpace=wrap;rounded=0;" vertex="1" parent="1">
          <mxGeometry x="130" y="-295" width="80" height="30" as="geometry" />
        </mxCell>
        <mxCell id="nvhU3l79kNzZTu7GIlZF-44" style="edgeStyle=orthogonalEdgeStyle;rounded=0;orthogonalLoop=1;jettySize=auto;html=1;exitX=0;exitY=0.5;exitDx=0;exitDy=0;" edge="1" parent="1">
          <mxGeometry relative="1" as="geometry">
            <mxPoint x="804.9300000000001" y="-331.5" as="sourcePoint" />
            <mxPoint x="200" y="-332" as="targetPoint" />
            <Array as="points">
              <mxPoint x="502" y="-331" />
            </Array>
          </mxGeometry>
        </mxCell>
        <mxCell id="nvhU3l79kNzZTu7GIlZF-50" style="edgeStyle=orthogonalEdgeStyle;rounded=0;orthogonalLoop=1;jettySize=auto;html=1;" edge="1" parent="1" source="nvhU3l79kNzZTu7GIlZF-49" target="nvhU3l79kNzZTu7GIlZF-2">
          <mxGeometry relative="1" as="geometry" />
        </mxCell>
        <mxCell id="nvhU3l79kNzZTu7GIlZF-49" value="" style="shape=image;imageAspect=0;aspect=fixed;verticalLabelPosition=bottom;verticalAlign=top;image=data:image/png,iVBORw0KGgoAAAANSUhEUgAAAWMAAACOCAMAAADTsZk7AAAAk1BMVEX///8Bc5/+/v4AbJsAcJ0AbpwAapoAZ5gAZpfs9fikx9fd7fMNd6K/2eS51eEAdaHk7vM5i6/0+ftFi66ZvM8jf6cAY5ZSj7He6O7V5ezr9PeyztxXmrpyobx+rsaRus5jn7ygxdZ7rMUcfaamwtPK3+hBkLJOlLRAh6wAXZIthqzH2OOStcp9rcVpo79kmrigvdAA2Y3wAAAQBklEQVR4nO2da3uqvBKGhRxARUXUtggFFalu2mXf///rdk6coQaK2Faea31YUoxwM04myUwcjQYNGjRo0KBBgwYNGtSNVMuc79fexT29vZ12h4+1E24t9d5X9Xe0Df3XCGkYIAQRJEIIAYA1Zfnqv5v3vro/INs/GZiQVSpEaGO48sJ7X+Ovlu0FAFTizYBGwDgMmNvJ9A0NXQEsRMz538u9r/f3aeYCIMVXCODT/N7X/Ls0iTBqQpgb83KgLK35ppEJJ4IgGhyzlOylJueFqyjrpyGYuyrrgFsTZpSRb937Hn64nKCdm8gIbGb3voufLOv0PSMWpowP976Rn6uZZDh8VWBj3/tefqh83A1hhXpl59538xOlut0hJhr8RVnj6NudXV7gNEx95vVidOSKU6FoCOKysrtHTCBvtve+rx8ku3vAVHCAnGjaVcxWhjy+9739ENnKjRATyMHgk6m2t/DFsdBqiC6IohsiJiHc7t739wPkdhwXF4XX977Du6vDAXQd5Eefhpvd2IqJoPLY/d74lv1dLHS6812G4T2nAU+NV0bb6Bsueeocj87sO0OZ8QUCgOCOeizz7XR663nJcaL1gZhYcrvkC9tbaBjQtK+V09bf2IibEcIkiJxqCOn9Lp6PF/0gVmAbb2Fe0vwDiIN2aKyNcIbII6+mpPfB/TK+3L7DE8KTxhfnLHJXB7HX5hYdGjYhjLFO18s7ZexfDhf/2klhb4jJbTYd7gk3hoirANyctTaQD+S90Lenc0ajU8ZvAIHztZOWPcQUsUBDQHOdEUau8x46F4NZg9b8y0DvEaYgOmV8Ik2vrpzj3Hz0kRVqlNtisZ4CuFPx0idWDYIWa4TEHUM3edU746BHMyaEGq3vedRws7bvaJrXJrQIiKt4Tl71zbhfMya32sCQx4ZSHLo4ubB29hFtNgcnjZutGZE1mnrLTeQJ61cdx6ENBcf/iOgTShmrITnfzrw3vbrp2o0id5/MfLNTx6PxerlZenbaNI1YNg5VrQ/b9GrGBFkDQ2bPH9c+lHlAM/shwiCxbfN/GD+9+/y4tmM9rLXAvFen/aY+zjG2Ag3rn/y9L/S9e9HQ9qSTEQvta+MjFglLniYTAGjTusua3pLPhnHT4H9119kuqCCfp4F2g0MoP1pj0cBb3V8vac4j2AibNWkYEsQXBk6cY+bTcYExddSv4r3kiQJhi/Yiubk4e8Eyck2zy2JftER6zYWu2pixdl6Hpj1xn9q8GVwNJhN9kvZR3ekX5uQQL6JAwTZlzAonGAxtzhiLNTSEENSuMOZWu13QT8a6Ti0Q+yljev3cclmoP17ApGmEnqov1G5hxlCJfeJ0lY7AaIAvZ9hQFrFKDQDURBHMjwDjcvRYljRwM4xB5B9dejHMl1tvUUTjE8MlOuX9cQ3jHTkBueFInVCEmpkyRoZ33NGmWT9Hm1bipt2ab5zX/PsOA3OkcpGL4e+H+Oy/v7/7q2uVOVTSE8kqjdxr+n+VLtsA7nD39CL0MGHMvykTTBdrxZhnmev8v2DMpq2mT8m4n/pSdEkY8/+y57sQ/YSbC70rrjT4GkclYztGTCGfOfYYWxhcf2hoJ8l49AxTD1lQiDOu2k9AUMbxrAh9CsY2+b8cYz9uD4gv64laDTvVSJ8ZPQhekhO+ZDxrPuGGPlLEBLJNWkBnK7FsSyZOkc0E2EExiVMWxYBjn8WGKouYcRwJfIDU2JoxfiOfCz2fau1SnFPBOA6K9rQBwZg4pS8Zv7ZwFdMsY5WNoKyMZUtM4tW52JLWgJpO5Z/+odRIuV3pCWMnfbfSlDHzFWxYhrjof5lNM8bigTu0ATtl/NUYpEWPF+QQq8RasJOz7PXVRuFOkjHrkavdt5djTDs4FjGUGE8bME6+A5wxTKQVGc/J48DvKeMv7Dhs7iqIWeUZkztRc4y31w3ZkB0OU5eaz3/xhHv2UeoR+XlawqkhYxSPQZL30lgBvqb6tL9iTP1x/XRim6hiWWC8114LR66H3Fh2nWdPO3C4SiCPXQxc9or2JEnobKPYpzRlrK7IOyN+lDkA9qWhY5/S8JIx9suMP4kdb+qNpkXaSpmx7hWOXK4+udpxRUlLFuWKsMX0aGiIFvQJsRGW6Pu3tJ/l3/KmjCkhRePNn2krjCz9fvM4hbYeMw4KjIWh0D6NL6JVGfO2MeEKxhMyxM8f8a8yzkyBXZHJcvAgDnYf/06amKRndDw+BDO32z1dVIcLqxVjGiEo0BmPbTqeir/0EQtoaIumr/lfM6YRDlyZW9tfVFjze5tBngTj681C6flJOx4HgzipVOer2zxIRID+o7Q52KZxhQiDsGKwSi4swj7WUQFjd3mGIF4gY4yz/ljEFTbzZ0jBqGqWQALGjRhr8okOL0auOYTjwC+XyRsbW5HxtfiYeOGntBWwjM+Y6CK0oIefpl8xzqwjVfTlO9kuDwI6o9ch45rBW6VUHyYjdIR26azdeIU5ZgiS8inzCcL4KfiYWJdgvEEQZBhjEo/FY3QHieYRzsxUhxtRogiBwZ2CZcBkwdYhDehxVGMaQFzGomw6Z7kuD6Jn39nv+IeWGDslxtcD5LrBW43Gk2cDEy3OXj5Bw3EDiDE8+8nAcXt+fl6JDn+yen5+Fo/EJf99Td5nkr+skthm650XWAPGKR+IT1YGoJ+5FsZpkTZWwpfMNlG0Sa5l7J0hBovVvmzGW+MqCyr8yRuznA3qinH9pHCNti9EFZP1Y5Mc/n5qM22lPK29fXmv+kwmK8dTJQ1UTou/SLlj6vE5u5FFut5uGCvGt7H8DoUyK3nYz86yRV0xrlsy+GuaSLAgI/EsvhB3xFh7kO0tZEI34ORn2VaoI8YPUqzuVbOgy1i6LtaN9G2esY9lGUNAm9FqeD9KUv2hKjyG4B8LamYHFnsGVp7xuybJGEQsjdX2qrfdk55C/uWqmqCHNOCmoAiegIyNoquM55WM2cCeNbOtzB9/FMYVdgyNZD1UJeMXRVmqecahnK+gQ6345ei5AjL47953348qGIMww2s0w2SMn+cXSvkK4GebsSpiRPnZzd+tMmPk5q32DT23YOwDI+dh+PzhYzIur4IUI7UjLjKW6fN87ZBvxiovaT0w48Kas62fSozfrjN+cgpHyust4EGqTsvrFagQRVhP7RjPC0fKk6jgeO+770dlNwnGecbjjhi7JTvGDxK7zUv9fS6soD2cXowryowr5uj1Y+FIeRK1g3HemOh71cEqbeK2ez7Ypa6IeMk8LVyMj6UY4/yTGU3LfR5uNl8R+jv3eXdwpumh8SYIFi2qb7IAFkGg3HZQb5a8JM1RyLAZGRLjvMmTXzjiIWRnD40u5eG03sACLT/gyesIoFPybGiJd4tyv6xsAG89cTIuJ23irCHTiTmjwNgpjfMmpfwKF8Gs+VfOU2P5y5xkt8JH+kV8uWmCRZNlwQrZ4PaTUxXreSAZBPO8meK82wGUGOPPwhHSLE0Mjl9OK3Kz4tSc61IvhScExHZxv4Rx1bp0kiNg/WPTZ5Pct16NSvPHe5CP+HgiIFjFk/CTqm0b0GvdNZWukSGGQEOKzleKwZJZ8i9hXDlJDzbr0JzOPniZcsFDO+V1EML4X44xD9QQcI+hGR6rt1uXHoLw7WHwZjJWVSvcMcrajv7llzCuzhOCAGtpaQctQEzwTWFFbiwxsPeM9z3G321E26mpXZBNKuShT1K+RfdRhODCnMUvYWzK5FdgL1mXZjtFFntBGjTA9+Sco1S6LZIMK3YsQSozXjGVeHfwMmPT3MpGKxZLyOiDsVz9I1iJrEmfLWmA97yHZkzRgUeu7yepfIKr9cVCJm87e2gaYywwDg9nBRobN63QmR087yCSW3zy/yRtxtqfNsF5Nxu9oB4YV642lYkAw/UuEQQJnwxjMbEEUOR5O0OyLFK2+p/Xh1VXj+QYWy5POYQIR/E4Za0BpIsXSwyAIo7bBs0ro2euYQ+MZ7K10qIuggl/ZNY40jJViOR365R1xyy1d1f9tyzjqZI+WyiyidmSFxCMaRGNSJsJk+pUSN90c8Zqq32EWGIdIyy1zF8hQ7KwiSZg14UgGcbjgCcpi54acrDVjPmOl2nB5u0XyE+tCtLBmV2YNT+3LLbeSV7eV3WmGcYHlu59mZkhC/VEfV6R8YKfS9Fq5NzZAffDWCZVqELENW/eAkWmqLRK0ovSz1KMxzht04YJtyJjVkK8Zf6Bnzuvr5rqUuPWWwlVp01ISjbEYr5iX/23lPEEZNau2As2iqxkTHvRJFDx+4grGqR5dyh4uX5dXGxvhZphd8qY9ozJziP0MJ8NqWRMc6NAPHc37YexdGTRoaQrx0Ttd/XfUsY0SSZIjrPKtbg/zjJmsdslU0PNqsF6YCxV3tytoHzuMRuI1kwSp4zpd9FIljMoY6OKMftYavOLrM33kXjXpu7me2oysc43oZhmj+yEM08Z0+8/jM9hxQHMVxwzboFurcDqaT5Qxlf0MpYeiY62V1VVsdWJTe/DIC3dOAGw4a9Sxvl+DMTDSDr9LaINVWH5OSO+hplUN1768ccjiarQbtVsF70dK1FEF8Z16tFdfiDffjZlbLEJax5+TFhsxs6mNXaiyJYGEOiD/o+VfYpz172M89in6v0yVhptsKvynzZCJCCPAr71K+Tb8GXGIHwXuKXjOCv6v3izMrr+AjeTcLZL92nh4xVwcmbHJa+d7CURWm5iqCs1qxqjdT6iw4gDcijKczOM1Yht8APEbHUcN/CCdsBHzVCUN1psLJ2c2xPj8vL0LQWb/hqLesluBQXxUkQF2TmhbWa1BcJk6fqUBqZIiavpQtTvnBBXTc3CTdRg47FEtot5lStEWrCPg7QxBCDZ8c66aKLWU39Lq3ksT1grwlGazzGNNFHnPgGkiX4YW31sRs/VIDbOanvcEWccvHmZ0Yt1PB7/S8mZfgQRNHb58c14fTIQMtz83lrzi4FANBmptImeCqzKSVm3UryvRhtdT5qqDgrVn/ELO25PLhlJz1T8PbWffmskKDs3/yc16cVbPEpRXo36mONsuk/6X1MP829oef0y/rbabCDbSHDxIGXoX2h+43kL1PNv9/xI3fbX3b6Zjv1XdLghZO1B6vGu6na/KTT8In2iW/3eJnjg8V1JnzeBjAfEWRWrL7rQ4IsL8jqHrNck+jyw9rjTER9ED1K120izRYeQoTEMPapkrjrr+fDyOz/z+qfldTOuhpr/M9YgfqRmiw7mOsHmQTbKaynr0jaBOzHiR58ullAYfSuKw+5gxBKaKG37Poijx15Wkpe6Ntp4DAg2Q0wsL3VylvxRvEQInwfCDTU71RWWV5kwVg7DoKOFTN/QZTBDoL8539tF6ZFlr98U8FWtLkRAWU6GQd33NJ4d6I85FEGz3x7GwckPHzkHqEONX+b+6zJYAF3DGhVWNqdX33kZ+HYr1SIypzaRaVmD/x00aNCgQYMGDRo0aNCX+j+rkxRn+iWIpAAAAABJRU5ErkJggg==;" vertex="1" parent="1">
          <mxGeometry x="80" y="-640" width="180" height="72" as="geometry" />
        </mxCell>
        <mxCell id="nvhU3l79kNzZTu7GIlZF-51" style="edgeStyle=orthogonalEdgeStyle;rounded=0;orthogonalLoop=1;jettySize=auto;html=1;" edge="1" parent="1" source="nvhU3l79kNzZTu7GIlZF-2" target="nvhU3l79kNzZTu7GIlZF-49">
          <mxGeometry relative="1" as="geometry">
            <Array as="points">
              <mxPoint x="430" y="-590" />
            </Array>
          </mxGeometry>
        </mxCell>
        <mxCell id="nvhU3l79kNzZTu7GIlZF-52" value="Engineering Team" style="text;html=1;strokeColor=none;fillColor=none;align=center;verticalAlign=middle;whiteSpace=wrap;rounded=0;" vertex="1" parent="1">
          <mxGeometry x="100" y="-568" width="140" height="30" as="geometry" />
        </mxCell>
        <mxCell id="nvhU3l79kNzZTu7GIlZF-66" value="1a" style="shape=ellipse;perimeter=ellipsePerimeter;fontSize=22;fontStyle=1;shadow=0;strokeColor=#ffffff;fillColor=#12AAB5;strokeWidth=4;fontColor=#ffffff;align=center;whiteSpace=wrap;html=1;" vertex="1" parent="1">
          <mxGeometry x="150" y="-683" width="40" height="40" as="geometry" />
        </mxCell>
        <mxCell id="nvhU3l79kNzZTu7GIlZF-67" value="1b" style="shape=ellipse;perimeter=ellipsePerimeter;fontSize=22;fontStyle=1;shadow=0;strokeColor=#ffffff;fillColor=#12AAB5;strokeWidth=4;fontColor=#ffffff;align=center;whiteSpace=wrap;html=1;" vertex="1" parent="1">
          <mxGeometry x="80" y="-500" width="40" height="40" as="geometry" />
        </mxCell>
      </root>
    </mxGraphModel>
  </diagram>
</mxfile>
